<?xml version="1.0" standalone="no"?><!DOCTYPE svg PUBLIC "-//W3C//DTD SVG 1.1//EN" "http://www.w3.org/Graphics/SVG/1.1/DTD/svg11.dtd"><svg class="icon" width="200px" height="200.00px" viewBox="0 0 1024 1024" version="1.1" xmlns="http://www.w3.org/2000/svg"><path fill="#58c69f" d="M953.7536 444.0064A438.6816 438.6816 0 0 0 512 2.2528 438.6816 438.6816 0 0 0 70.2464 444.0064 430.08 430.08 0 0 0 368.64 860.16c-93.5936 33.9968-152.9856 93.3888-152.9856 161.3824h593.92c0-67.9936-59.392-127.3856-144.384-161.3824a455.2704 455.2704 0 0 0 288.768-416.3584zM520.3968 749.9776a229.5808 229.5808 0 1 1 229.5808-229.5808 228.5568 228.5568 0 0 1-229.5808 229.5808z m0 0"  /><path fill="#58c69f" d="M512 418.6112a112.4352 112.4352 0 0 0-110.3872 110.3872A114.4832 114.4832 0 0 0 512 647.9872a107.1104 107.1104 0 0 0 110.3872-110.592 114.4832 114.4832 0 0 0-110.3872-118.784z m0 0"  /></svg>