<?xml version="1.0" standalone="no"?><!DOCTYPE svg PUBLIC "-//W3C//DTD SVG 1.1//EN" "http://www.w3.org/Graphics/SVG/1.1/DTD/svg11.dtd"><svg t="1575987416790" class="icon" viewBox="0 0 1024 1024" version="1.1" xmlns="http://www.w3.org/2000/svg" p-id="1381" xmlns:xlink="http://www.w3.org/1999/xlink" width="200" height="200"><defs><style type="text/css"></style></defs><path d="M139.663028 93.099703c-25.760728 0-46.563325 20.802597-46.563325 46.536379v651.590138c0 25.733782 20.802597 46.536379 46.536379 46.536379h176.337036c45.943558 0 90.863155 13.634862 129.073105 39.126127L511.981003 921.484966l66.934779-44.59624a232.735785 232.735785 0 0 1 129.019213-39.126127h176.390929c25.706836 0 46.536379-20.802597 46.536378-46.536379V139.636082c0-25.733782-20.829543-46.536379-46.536378-46.536379h-176.337036c-19.347493 0-48.772927 8.353374-73.563586 22.796628-11.991134 6.979109-20.640918 14.092951-25.760729 19.994206a26.164924 26.164924 0 0 0-3.745545 5.281488v556.981438a46.536379 46.536379 0 0 1-93.072757 0V139.663028c0-27.000261 12.934257-49.069337 26.407441-64.590445a194.93003 194.93003 0 0 1 49.473533-39.665055C623.000041 14.928288 668.404672 0 707.961941 0h176.337036A139.663028 139.663028 0 0 1 1023.962006 139.663028v651.563192a139.663028 139.663028 0 0 1-139.663029 139.663029h-176.337036a139.663028 139.663028 0 0 0-77.443863 23.44334l-92.695508 61.81497a46.536379 46.536379 0 0 1-51.656188 0L393.416981 954.332589a139.663028 139.663028 0 0 0-77.443863-23.44334H139.636082A139.663028 139.663028 0 0 1 0 791.199274V139.636082A139.663028 139.663028 0 0 1 139.663028 0h176.337036c45.916612 0 90.809262 13.634862 129.073106 39.099181A46.536379 46.536379 0 0 1 393.416981 116.543044a139.663028 139.663028 0 0 0-77.443863-23.443341H139.636082z" fill="#57c89d" p-id="1382"></path><path d="M170.651352 360.272948c0-26.137978 20.371455-47.398662 45.539363-47.398663h136.510303c25.140962 0 45.512417 21.233738 45.512417 47.425609 0 26.137978-20.371455 47.371716-45.539363 47.371716H216.190715c-25.140962 0-45.512417-21.206792-45.512416-47.371716z m45.539363 189.621595c0-12.583954 4.796454-24.628981 13.311506-33.494336 8.541999-8.892302 20.128937-13.904326 32.173964-13.904326h91.024833c25.140962 0 45.512417 21.233738 45.512417 47.398662 0 26.164924-20.371455 47.425609-45.539363 47.425609H261.703132c-25.140962 0-45.512417-21.233738-45.512417-47.425609z" fill="#57c89d" p-id="1383"></path></svg>