<?xml version="1.0" standalone="no"?><!DOCTYPE svg PUBLIC "-//W3C//DTD SVG 1.1//EN" "http://www.w3.org/Graphics/SVG/1.1/DTD/svg11.dtd"><svg t="1575987489522" class="icon" viewBox="0 0 1024 1024" version="1.1" xmlns="http://www.w3.org/2000/svg" p-id="1206" xmlns:xlink="http://www.w3.org/1999/xlink" width="200" height="200"><defs><style type="text/css"></style></defs><path d="M799.954271 368.637872l37.651528 36.69576-25.348318 25.045419c-63.921845 63.155389-193.220676 190.299137-227.831962 222.690872l-1.899256 0.081864-4.411473 4.318352-51.473325 15.997346 16.048511-49.738821C567.765071 598.463234 671.705352 495.058143 747.954967 419.289482l0.105401 0.104377 26.086122-25.512047L799.954271 368.637872M801.162796 326.618872c-6.927783 0-14.307867 2.922563-19.900236 8.516977l-33.003672 32.278147-0.35918-0.357134-15.410991 15.410991c0 0-222.366484 220.923622-222.366484 221.627656l-35.874045 111.183242c-1.420349 3.590781-0.700965 6.468318 1.445932 8.612145 1.366114 1.369184 3.308349 1.870604 5.278213 1.870604 1.136893 0 2.282996-0.166799 3.332908-0.429789l113.326045-35.158754c0.729617-0.714268 0.729617-0.714268 1.440815-0.714268 4.294816-0.713244 239.189637-232.728482 239.207034-232.745878l0.357134 0.353041 33.003672-32.276101c10.035564-10.04375 11.477402-25.825179 3.578502-34.417881l-59.540048-58.105373C811.872718 328.4598 806.659997 326.618872 801.162796 326.618872L801.162796 326.618872z" fill="#57c89d" p-id="1207"></path><path d="M240.816694 815.938314c-7.875365 0-15.756869-2.961448-15.756869-10.839883L225.059825 182.166923c-0.983397-14.788821 8.877181-11.819187 19.706831-11.819187l54.211692 0 0 20.697391c0 7.889691 8.861832 14.785751 17.739013 14.785751 7.893784 0 17.754363-6.895037 17.754363-14.785751l0-20.697391 80.820724 0 0 20.697391c0 7.889691 8.861832 14.785751 17.743106 14.785751 7.893784 0 17.751293-6.895037 17.751293-14.785751l0-20.697391 73.924663 0 0 20.697391c0 7.889691 8.861832 14.785751 17.743106 14.785751 7.900947 0 17.751293-6.895037 17.751293-14.785751l0-20.697391 73.92978 0 0 20.697391c0 7.889691 8.872065 14.785751 17.746176 14.785751 7.890714 0 17.750269-6.895037 17.750269-14.785751l0-20.697391 62.082964 0c7.889691 0 12.82305 3.929496 12.82305 11.819187l0 106.709347 45.353954-44.348044 0-62.361303c0-32.527834-24.64633-56.17951-58.177004-56.17951l-63.077617 0L668.63748 87.536682c0-7.893784-8.870018-14.788821-17.751293-14.788821-7.881504 0-17.739013 6.895037-17.739013 14.788821l0 38.440497L559.220465 125.977179 559.220465 87.536682c0-7.893784-8.865925-14.788821-17.757432-14.788821-7.890714 0-17.73185 6.895037-17.73185 14.788821l0 38.440497-73.92978 0L449.801403 87.536682c0-7.893784-8.873088-14.788821-17.750269-14.788821-7.893784 0-17.743106 6.895037-17.743106 14.788821l0 38.440497-80.824817 0L333.48321 87.536682c0-7.893784-8.873088-14.788821-17.751293-14.788821-7.893784 0-17.739013 6.895037-17.739013 14.788821l0 38.440497-53.228295 0c-44.352137 0-66.035996 23.64656-66.035996 56.175417l0 621.949134c0 32.512485 29.562293 56.18258 63.088874 56.18258l488.88556 0c33.512255 0 58.157561-23.669072 58.157561-56.18258l0-188.247408-45.345768 44.352137 0 144.859225c0 7.897877-4.929266 10.851139-12.81077 10.851139" fill="#57c89d" p-id="1208"></path><path d="M608.909144 294.536176 294.263977 294.536176c-7.893784 0-13.791098 9.845229-13.791098 16.741289 0 7.889691 5.91164 16.759709 13.791098 16.759709l314.644143 0c7.904017 0 13.801331-9.859555 13.801331-16.759709C622.710474 304.381405 616.802928 294.536176 608.909144 294.536176L608.909144 294.536176 608.909144 294.536176 608.909144 294.536176 608.909144 294.536176 608.909144 294.536176z" fill="#57c89d" p-id="1209"></path><path d="M510.183631 430.9081 294.263977 430.9081c-7.893784 0-13.791098 9.845229-13.791098 16.751522 0 7.893784 5.91164 16.744359 13.791098 16.744359L510.183631 464.403982c7.904017 0 13.801331-9.860579 13.801331-16.744359C523.984962 440.753329 518.077416 430.9081 510.183631 430.9081L510.183631 430.9081 510.183631 430.9081 510.183631 430.9081 510.183631 430.9081 510.183631 430.9081z" fill="#57c89d" p-id="1210"></path><path d="M420.75588 567.277978 294.263977 567.277978c-7.893784 0-13.791098 9.845229-13.791098 16.751522 0 7.893784 5.91164 16.744359 13.791098 16.744359l126.491902 0c7.904017 0 13.801331-9.860579 13.801331-16.744359C434.55721 577.123206 428.649664 567.277978 420.75588 567.277978L420.75588 567.277978 420.75588 567.277978 420.75588 567.277978 420.75588 567.277978 420.75588 567.277978z" fill="#57c89d" p-id="1211"></path><path d="M529.455557 407.877571" fill="#57c89d" p-id="1212"></path></svg>