<?xml version="1.0" standalone="no"?><!DOCTYPE svg PUBLIC "-//W3C//DTD SVG 1.1//EN" "http://www.w3.org/Graphics/SVG/1.1/DTD/svg11.dtd"><svg t="1575985789185" class="icon" viewBox="0 0 1024 1024" version="1.1" xmlns="http://www.w3.org/2000/svg" p-id="1402" xmlns:xlink="http://www.w3.org/1999/xlink" width="200" height="200"><defs><style type="text/css"></style></defs><path d="M335.787 938.667s-47.787-53.76-93.014-98.134a4053.641 4053.641 0 0 0-145.92-37.12l99.414-171.946c52.48 68.266 144.64 127.146 231.68 148.48l-92.16 158.72zM789.333 832c-45.226 44.373-101.546 106.667-101.546 106.667l-91.307-158.72c87.04-21.334 170.667-79.787 223.147-148.48l107.52 171.946c-0.427 0.427-73.387 10.667-137.814 28.587zM511.573 85.333c-173.226 0-322.133 157.44-322.133 331.094s148.907 314.026 322.133 314.026 322.134-148.906 322.134-322.56S684.8 85.333 511.573 85.333zM697.6 393.813l-56.32 58.454c-7.68 7.68-11.52 18.773-8.96 29.866v1.28l12.8 79.36c1.28 7.68 0 15.787-3.84 22.187-9.813 17.493-31.573 24.32-49.067 14.507l-64.853-34.56c-10.24-5.547-23.04-5.547-33.28 1.28l-63.147 33.706c-7.253 3.84-14.933 4.694-23.04 3.84-19.2-2.986-32.853-21.76-29.866-40.96l13.226-82.346c1.28-9.814-1.706-19.2-8.533-26.454l-56.747-60.16c-4.693-5.546-8.533-12.8-9.813-20.053-2.987-19.2 11.093-37.547 30.293-40.533l72.534-11.52c11.52-0.427 21.76-7.68 26.453-18.347l33.28-70.827c5.973-11.946 18.773-20.48 32.853-20.48s26.454 7.68 32.854 20.48l32.853 70.4c4.693 11.094 14.933 18.347 27.307 19.2l72.533 11.094c7.253 1.28 14.507 4.693 20.053 9.813 13.654 14.08 14.08 37.12 0.427 50.773z" fill="#57c89d" p-id="1403"></path></svg>
